<svg id="Graphic_Elements" data-name="Graphic Elements" xmlns="http://www.w3.org/2000/svg" viewBox="0 0 1200 1200"><path d="M156.61,1014c-2.43-2-4.42-4.61-4.42-5.69a25,25,0,0,0-2-6.71c-2.87-6.7-6.11-20.09-8.11-33.49-.94-6.33-2.26-15.07-2.93-19.42s-2.15-14.7-3.29-23c-4.38-31.74-5.42-38.4-7.37-47.47q-2.67-12.32-4.5-26.61c-1.92-15-4.95-34.42-6.28-40.27-1.53-6.73-4.53-22.25-6.54-33.8a58,58,0,0,0-1.66-7.2c-1-2.7-1.27-4.85-3.86-28.76-1.16-10.68-3.4-26.87-5-36s-4-24.31-5.38-33.81-3.13-18.87-3.87-20.85-1.64-7.48-2-12.23-1.63-14.78-2.88-22.29S83.7,597.9,83,592c-1.93-17-5.18-39.49-6.8-47-.82-3.8-2.22-13.7-3.13-22s-2.24-17.37-3-20.14c-1.1-4.22-2.55-12.95-4.9-29.48-.22-1.58-.85-6.76-1.38-11.51-1.39-12.25-5-34.94-6.73-41.73-1.28-5.15-3.9-21.7-6.91-43.65a29.77,29.77,0,0,1,8-23.59c2.7-2.76,16.23-3.4,27.17-1.27,7.16,1.38,9.31.74,9.31-2.8,0-1.53.93-2.76,2.07-2.76,1.35,0,2.41-2.25,3-6.48.54-3.56,1.5-6.47,2.15-6.47s1.13-1.92,1.06-4.26c-.14-4.84,2.44-8.69,5.81-8.69,1.77,0,1.89-.39.55-1.73-3.71-3.7-1.26-10.52,5-13.84,2.06-1.1,2.87-2.58,2.39-4.4-1-3.87,2-8.8,5.34-8.8,1.89,0,2.83-1,2.83-2.92a4.16,4.16,0,0,1,2.16-3.75,3.3,3.3,0,0,0,2.16-2.61c0-4,9.44-7.28,13.39-4.69,5.74,3.76,7.09.49,3.75-9s-3.23-8-.52-10.71c2-2,2.78-2,7.86.61a29.52,29.52,0,0,0,11.06,2.9,58.87,58.87,0,0,1,11.2,1.44c22.65,5.53,85.31.89,125.14-9.26,4.75-1.21,12.84-3.21,18-4.44s11.62-2.85,14.39-3.6c5-1.37,37.14-5.32,45.3-5.57,41.61-1.28,82.2,3.67,116.51,14.2,30.08,9.24,54,19.73,62.32,27.32,2.61,2.38,5.19,4.33,5.74,4.33s2.28,1.94,3.86,4.3c5,7.49,9.63,5.71,34.06-13.11,4.47-3.47,10.27-7.59,12.85-9.17,5.1-3.11,8.2-5.06,14.93-9.39,11.35-7.29,64-30.17,69.42-30.17.79,0,5.23-1.69,9.88-3.75,17.63-7.83,83.14-25.16,121.36-32.11,69.63-12.66,119.09-13,184.83-1.33,8.7,1.55,18.68,3.27,22.17,3.82,10,1.59,11.15,4.34,18,44.88,1.15,6.72,2.8,15.78,3.68,20.14,3.48,17.19,4.58,24.05,5.08,31.64.54,8.07,1.62,15,6.53,41.71,1.52,8.31,3.44,20,4.27,25.89,4.45,31.93,5.87,41.56,9.25,62.57,2,12.66,4.68,28.84,5.88,36s2.56,17.16,3,22.3,1.44,10.09,2.16,11,1.9,7.05,2.64,13.66c1.92,17.21,5.23,40.48,6.23,43.74.47,1.54,1.55,8.62,2.39,15.74s2.15,16.51,2.89,20.86,2.39,15,3.68,23.73,2.71,16.8,3.19,18a27,27,0,0,1,1.11,6.48c.13,2.37,1.67,12.08,3.41,21.57s4.11,23.09,5.27,30.21,2.68,16.18,3.4,20.13,2.06,13,3,20.14c4.55,34.82,5.81,43.82,7.23,51.78.85,4.75,1.81,11.22,2.14,14.39,1.09,10.5,1.36,12,2.45,13.06,2,2,1.13,11.85-1.18,14.16-2.68,2.69-2.85,2.71-6.59.71-3.41-1.83-5.15-.74-3,1.88s8.48,39.84,9.73,56.53c.3,4,2.2,16.15,4.21,27.06,4.51,24.41,4.68,22-1.73,25.17-4.81,2.41-10.45,2.81-52.14,3.67-25.71.53-55.81,1.26-66.89,1.61-38.66,1.25-115.67,2.08-195.33,2.11l-80.23,0-3.17,3.41a92.12,92.12,0,0,0-6.77,8.65c-16.07,23.42-135,36.75-155.34,17.41-2.77-2.63-6-5-7.2-5.19-3.21-.6-19.87,1.58-24,3.14-2,.74-8.54,2-14.61,2.77s-18.17,2.4-26.87,3.6-20.58,2.79-26.39,3.55-11.63,1.71-12.94,2.11-10.15,1.69-19.65,2.88-37.32,5.15-61.85,8.79-50.74,7.5-58.25,8.56-17.94,2.63-23.17,3.48c-11.78,1.93-71,9.3-99.09,12.33-11.47,1.24-25.19,2.88-30.49,3.65-15.18,2.22-19.12,1.84-24.06-2.31ZM181.4,979.8c.65-1.69-3.54-31.13-7.6-53.42-.72-4-2.61-14.31-4.21-23s-3.21-18.1-3.57-20.86-2.66-17.66-5.1-33.08-4.71-30.32-5-33.09-5.25-32.86-10.94-66.88-11.17-67.35-12.18-74.08c-3.55-23.52-6.65-42.76-13.75-85.58C112.5,550.6,107.19,516,103.25,487c-2.51-18.39-10.1-69.14-12.28-82a165.17,165.17,0,0,1-1.66-27c.44-15.91-1.65-20.58-3.83-8.56a24.09,24.09,0,0,1-1.31,4.94c-.33.6,0,6.28.74,12.61,1.43,12.11,2.23,19.27,3.21,28.76.33,3.17,1.95,12.88,3.61,21.58,3.17,16.66,4.36,24.7,8,53.94,1.24,9.89,3.19,22.83,4.35,28.77,2.57,13.25,8.78,52.52,10,63.29.49,4.35,2.52,16,4.51,25.89s4.49,23.48,5.57,30.2,3,17.41,4.22,23.74,2.89,16.68,3.67,23c1.53,12.55,4.48,31.64,11.22,72.64,6.5,39.46,8.73,54.78,11,75.51,1.14,10.29,2.73,21.29,3.54,24.46s2.44,10.93,3.63,17.26c2.48,13.26,4,21.27,7.23,37.48,1.26,6.37,1.87,12.69,1.35,14a4.76,4.76,0,0,0,.6,4.31c1.69,2,6,32,6,41.8,0,7.55,2.82,11.18,4.76,6.12Zm8.1-6.31c-2.9-17.45-5.92-43.27-5.35-45.77.81-3.59,2.6,3.28,6.83,26.3s6.66,23.93,40.32,15.54a147.93,147.93,0,0,1,19.42-2.89,121.88,121.88,0,0,0,18.7-3,217.07,217.07,0,0,1,22.75-4.13c8.56-1.14,16.49-2.84,17.62-3.79s3.89-1.34,6.32-.86,4.6.3,5-.38,2.87-1.59,5.45-2c12.28-2.09,17.89-3.44,20.77-5,1.73-.93,7.23-1.7,12.23-1.71,9.65,0,21.61-1.79,53-7.9,67.46-13.16,138.48-13,178.56.33l15.3,5.11,3.25-3c2.79-2.6,3-3.36,1.32-5.36-3.16-3.81-13.92-10.71-16.74-10.74-3.41,0-7.14-2.41-5.83-3.72,1.89-1.88,15.32,3.57,23.27,9.44,9.09,6.72,12.06,7.12,17.57,2.38S627,919.92,616.6,919.92a2.49,2.49,0,0,1-2.7-2.16c0-3.68,8.84-2.58,16.06,2l6.57,4.16,4.8-4.1c5.89-5,6.24-4.68-11-10.77-14-4.94-19.38-7.83-14.59-7.83,1.32,0,5.82,1.22,10,2.72,18.56,6.63,25.58,8.34,25.58,6.22,0-3.86-25.64-13.24-53.22-19.47-9.09-2.05-20.1-4.24-24.45-4.87s-7.6-1.77-7.19-2.58c1.15-2.29,4.95-1.81,30.16,3.81,33.17,7.4,43.41,10.62,54.3,17,7.54,4.45,13.61-.45,6.65-5.38-9.13-6.45-40.68-15.74-62.34-18.35-4.35-.53-13.22-1.85-19.71-3-32.76-5.53-116-2.93-184.54,5.77l-28,3.58c-44.5,5.71-75.31,5.06-109.61-2.28-14.64-3.13-13.51.73-24.17-82.51-1.26-9.89-2.93-21.21-3.71-25.17-1.46-7.52-9.22-58.88-11.5-76.17-.72-5.51-1.62-11-2-12.23s-1.34-7.4-2.17-13.72-2.42-17.34-3.55-24.46-3.39-22-5-33.08-4.29-28.88-5.91-39.56-3.92-25.89-5.12-33.8c-6.47-42.86-15-96.41-18.6-116.51-1.13-6.33-3.71-22.18-5.73-35.24s-4.59-29.22-5.71-36c-2.81-16.9-4.71-29.55-7.34-48.9-2.9-21.37-3.09-22.08-6.63-24.29-4.1-2.56-5.38-.12-4,7.51.61,3.29,2.17,14.08,3.46,24,2.35,18,4,29.11,9.32,64,9.1,59.33,12.36,79.95,15.72,99.25,1.52,8.7,3.18,19.06,3.7,23s2.89,19.14,5.26,33.74c4.36,26.86,5.24,41.85,1.73,29.55-.9-3.16-3-15.46-4.68-27.33s-4-27.4-5.15-34.52-4.07-25.24-6.46-40.28-4.93-30.23-5.63-33.8c-1.2-6.1-2.67-15.16-8-49.62-1.23-7.91-3.15-20.21-4.27-27.33s-3-20.4-4.29-29.49c-5-36.44-5.45-39.05-6.91-37.59-.95,1-.86,5,.27,12,.94,5.79,2.27,15.38,3,21.32s2.23,16.93,3.4,24.45c4.53,28.89,5.79,42.93,4,45s-.59,12,4.77,42c14.73,82.46,15.18,85.59,12.44,85.59-1.56,0-1.44.62-9.43-48.19-3.62-22.15-7.55-45.45-8.74-51.78s-2.41-14.75-2.72-18.7a56.89,56.89,0,0,0-1.33-9.35c-.42-1.19-2.48-13.16-4.59-26.61-9.91-63.22-9.56-61.49-12.14-58.88-.82.82-.57,6.64.64,15,1.08,7.51,3,20.78,4.23,29.49,4.34,30.32,6.74,46.07,8.09,53.22.76,3.95,2,12.25,2.8,18.44,2.76,21.62.59,21.27-2.84-.46-.93-5.93-2.57-15.32-3.63-20.86-2.88-14.91-6.16-34.12-8.61-50.34-5.09-33.69-5.42-35.24-7.57-35.24-2.35,0-2.25,1.67,1.7,28.05,4.81,32.08,9.81,68,11.61,83.42,1,8.71,2.3,17,2.87,18.34s.38,2.52-.54,2.52c-2,0-1.87.91-11.64-59-1.61-9.89-3.9-23.81-5.09-30.93s-2.56-15.66-3-19-1.78-6.37-2.87-6.79c-2.42-.92-2.52,1.77-.47,12.26,2.26,11.54,5.18,38,4.45,40.2-.79,2.37-4-9.57-5.32-19.89-.54-4.16-1.64-8-2.43-8.46s-1.16.87-.63,4c.45,2.68,1.78,10.7,3,17.82s2.81,16.5,3.61,20.85c3,16,7.46,42.72,8.83,52.5s5.23,33.43,9.4,57.54c1.1,6.33,3,18,4.14,25.89s2.56,16.41,3.06,18.89c1.06,5.24-1.74,8.17-3,3.11-.79-3.25-4.45-24-8.69-49.33a180.8,180.8,0,0,0-3.72-17.75c-.86-2.64-2.4-11.38-3.42-19.42S116.62,442.52,115,433c-3.28-19.1-11.47-68.87-12.73-77.31-.44-3-1.4-5.4-2.14-5.4s-1,1.14-.59,2.52c.66,2.16,3.35,22.35,6,45,1.11,9.45-2.84.81-4.28-9.36-1.9-13.39-4.27-23.56-5.35-22.9s-1,2.36,4.77,36.57c2.34,13.85,4.82,29.4,5.5,34.56a97.21,97.21,0,0,0,2,11.5c.43,1.17,1.45,7.63,2.26,14.36s2.39,17.08,3.49,23,1.52,11.31.91,11.94-1.53-2-2.05-5.75S110.87,480,109.65,474s-2.78-14.67-3.46-19.42A113.39,113.39,0,0,0,103.4,441a42,42,0,0,1-1.67-9.35,41.22,41.22,0,0,0-2.11-10.09l-2-5.75.71,5.75c.39,3.17,1.29,9.64,2,14.39s2.57,17.37,4.15,28,3.54,22.34,4.35,25.9,2.55,13.91,3.87,23,2.94,19.13,3.62,22.29,2.57,14.82,4.2,25.9,3.58,23.69,4.32,28c2.09,12.2,6.91,43.16,10.18,65.45,1.63,11.08,3.87,25.64,5,32.36s3.67,22.91,5.71,36,4.27,26,5,28.77a121.9,121.9,0,0,1,2.17,13c.49,4.35,2.45,17.29,4.35,28.76s4.49,27.66,5.75,36,3.21,20.29,4.34,26.61c2.44,13.7,6,35.53,12.89,79.12,1.12,7.12,2.46,16.82,3,21.57,1.43,13.2,4.59,23.73,7.13,23.73.19,0-.16-3.07-.79-6.83Zm7.5-5.76c-.72-1.38-2.41-11.57-3.75-22.65s-3.42-25.2-4.63-31.38-1.89-13.3-1.5-15.82c.59-3.79-9.47-88.47-12.85-108.15-.86-5-.71-5.53,1.21-3.94,1.31,1.07,2.55,5.42,3.09,10.78.5,4.94,1.91,15.46,3.14,23.37L186.86,853c1.6,10.29,3.52,24.2,4.27,30.93s2,16.11,2.72,20.85c3.74,23.72,5.83,38.18,6.6,45.67l.85,8.27h12.08a139.36,139.36,0,0,0,22.55-2.08l22.69-4.51a143.35,143.35,0,0,0,17.26-4.4l5-2-5,.78c-2.77.43-9.57,1.56-15.1,2.5-16,2.72-51.75,2-53.66-1.08-1-1.63-2.18-8.65-5.32-31.67-3.39-24.9-6.21-43.38-9.07-59.35-1.46-8.11-2.33-15.07-1.94-15.46,1.71-1.71,3.09-.39,3.09,3,0,2,1.27,10.27,2.83,18.34s4.53,26.32,6.59,40.56c5.73,39.44,5.78,39.72,7.84,41,4.57,2.82,31.95,3.28,47.36.79,20.52-3.32,24-4.06,44-9.36,9.5-2.51,23.74-5.82,31.65-7.34s17.3-3.37,20.86-4.11c7.37-1.54,10.22-.11,7.73,3.87-1,1.55-4.21,2.8-8.6,3.33-7.68.92-39.08,9.13-57.39,15-6.33,2-16.81,4.73-23.3,6-9.81,1.93-11.87,2.81-12.23,5.24s-2.76,3.45-14.09,6.1c-30.93,7.22-47.7,8.51-50.12,3.87Zm27.82-3.35c8.7-1,17-2.33,18.41-3.06a47.71,47.71,0,0,1,8.63-2.63c5.37-1.17,5-1.24-3-.65-5,.37-10.37,1.37-12,2.23s-10.63,1.68-20.06,1.82c-12,.17-17.14.75-17.15,1.94,0,1.79,3.56,3,7.18,2.43,1.19-.18,9.28-1.12,18-2.08ZM287,944.8a8.2,8.2,0,0,0-4.31.05c-1,.4.17.69,2.54.66s3.17-.35,1.77-.71ZM231.3,937c-22.45-1.28-20.82.13-22.79-19.65-.94-9.3-2.33-21.09-3.12-26.24s-2.12-15.18-2.95-22.3c-1.46-12.5-2.64-22.29-5.82-48.18-.82-6.73-1.77-13.85-2.1-15.82s-1.2-8.78-1.92-15.11-1.7-14.09-2.17-17.26c-1.77-12.11-6.84-49.38-8.12-59.69-.74-5.93-1.59-12.08-1.9-13.66-.78-4-2.57-17.36-3-22.8-.22-2.49-1.47-12-2.77-21.08-3.61-25.15-6.77-55-5.91-55.81,1.47-1.47,2.36.91,3.72,10,5.67,38,8.55,59.35,8.55,63.46,0,2.65.72,5.54,1.61,6.42s3.78,14.78,6.43,30.86,5.82,34.41,7.07,40.74,2.91,16.36,3.69,22.3a116.41,116.41,0,0,0,2.19,12.94c.44,1.19,1.72,9.28,2.85,18,2.66,20.39,5.87,40.18,7.72,47.47,2,7.92,2,14.7,0,12.69-.86-.86-2.46-8.47-3.57-16.93s-2.28-15.81-2.61-16.36-1-4.84-1.57-9.56a72.12,72.12,0,0,0-1.44-9.35,47.1,47.1,0,0,1-1.34-7.24c-.49-3.56-2.2-13.59-3.81-22.29s-4.31-24.2-6-34.43c-6-36.33-4-14.63,4.53,48.29,4.76,35.09,8.94,66.72,9.3,70.28,2.4,24.32,6.91,58.77,8,61.41,2,4.61,8.41,5.48,40.67,5.48,25.88,0,33.83.89,25.17,2.82-5.35,1.2-32.44,1.55-48.54.63ZM187.7,721.78c-.37-1.39-.66-.25-.66,2.51s.29,3.91.66,2.52A11.85,11.85,0,0,0,187.7,721.78Zm41.44,205.4c-11.49-3.07-15.11-6.55-15.11-14.56,0-4.74,2.34-3.06,4.15,3,1.61,5.39,2.07,5.76,7.13,5.76,3,0,6.13.72,7,1.59,1.05,1,11.43,1.64,30.51,1.72,20.29.09,28.45.57,27.39,1.64-1.83,1.83-54.66,2.59-61.07.88Zm44.59-7.61c-55.08-1.88-53.78-1.38-56.32-21.58-1.71-13.58-.35-20.37,2.06-10.27.73,3.07,2.23,9.44,3.34,14.16,2.25,9.58,2.6,9.79,20,11.55,4.35.45,9.22,1.09,10.81,1.43s14.71.77,29.13.94,26.23.77,26.23,1.32c0,3-6.27,3.44-35.24,2.45Zm2.87-7.05-20.85-2.88c-6.73-.92-14.76-1.88-17.87-2.11-9.11-.7-10.29-3-14.43-28.29-1.65-10-.58-17.49,1.35-9.37,1.25,5.27,3.61,17.22,4.56,23.07.52,3.18,1.68,5.39,2.84,5.39s2,.65,2,1.44,1.34,1.44,3,1.44a14.17,14.17,0,0,1,5.65,1.43c3.93,2.11,40.88,7.19,52.27,7.2,7.22,0,9.67.48,9.23,1.8-.72,2.17-15.07,2.62-27.69.88ZM275.17,904c-14.45-1.77-36.89-5.7-40.44-7.08-2.33-.91-3.23-2.81-3.84-8.14-.43-3.82-1.82-12.45-3.07-19.17s-4.9-30.32-8.09-52.43-6.54-41.07-7.42-42.13c-1.07-1.29-1.13-2.42-.17-3.37,3.6-3.6,6.59,10.2,13.47,62.23.69,5.29,1.63,11.11,2.08,13s1.76,9.15,2.91,16.27c4,24.35,4.54,26.68,7.3,28.77A11.49,11.49,0,0,0,246,894a66.6,66.6,0,0,1,6.39,2.06c9.86,3.48,44.2,7.08,57.74,6.06,9.33-.7,11.86-.5,11.39.91-.74,2.22-31.05,2.86-46.39,1Zm0-7.87c-6.33-1.15-14.42-2.83-18-3.73a81.22,81.22,0,0,0-9.37-1.89c-4.06-.33-8.81-3.21-7.49-4.53.61-.61,3.33-.3,6,.68,21.71,7.85,85.73,10,106.28,3.62,1.82-.57,2.48-.23,2.06,1-1.74,5.21-58.41,8.63-79.54,4.8Zm83.6-4.53c-1.18-1.19,29.77-6,39.26-6.1,10.64-.12,6.12,1-16.38,4.14-25.27,3.5-21.64,3.19-22.88,2ZM208.31,741.45c-.08-2.91-3.35-18.66-4.64-22.35-1.89-5.42-.29-14.22,1.89-10.33,2.08,3.71,5.3,29.5,4,31.62-.65,1-1.2,1.5-1.21,1.06ZM648.43,924.62c-1.56-2.42-1.6-2.42-.82.08a26.79,26.79,0,0,1,1,5c.15,2.16.23,2.16.81-.07a7.39,7.39,0,0,0-1-5Zm9.37-1.75c-1.09-7.84-3.62-10-3.62-3.06,0,4.85,2.55,12.4,3.78,11.17.46-.45.38-4.1-.17-8.11Zm13-5.34c-1.37-11-2.42-8.85-1.24,2.49.53,5.07,1.25,8.37,1.6,7.33s.18-5.46-.36-9.82Zm18.47,7.06c-1.35-5.66-2-5.84-2-.61,0,2.52.66,4.56,1.47,4.56s1.08-1.6.52-3.95ZM725.81,923A33.22,33.22,0,0,1,736,916.46c3.48-1.35,11.87-5.33,18.65-8.85s13-6.4,13.9-6.4,4.25-1.29,7.52-2.87c6.46-3.12,9-3.58,9-1.64,0,.68-3.56,2.36-7.91,3.73s-7.91,3.08-7.91,3.79c0,1.91.94,1.77,22.62-3.56,27.28-6.69,65-13.65,78.79-14.55C944,881.36,974,881.34,1013.77,886l25.17,3a609.5,609.5,0,0,1,60.41,10.08c18.55,4.18,18,4.13,18,1.8,0-4.47-45.83-18.88-79.11-24.87-11.85-2.13-15.33-3.73-15.08-6.92.29-3.7,4-3.84,21.45-.85,8.84,1.52,11.54,1.56,12,.22.92-2.76,7.46-2.06,25,2.65,33.82,9.08,34.31,9.19,34.31,7.44,0-.62-4-2.29-8.78-3.73-10.25-3-10-6.25.28-3.88,16.2,3.74,11.87-.45-6.25-6-39.11-12.08-46.49-14-73.37-18.88-14.56-2.65-16.38-5.81-2.59-4.52,9.92.93,53.87,11.29,67,15.79,22.27,7.63,24.86,7.87,24,2.15-.78-5.26-3.39-6.52-19.6-9.4-6.27-1.11-13.71-2.61-16.54-3.32s-10.65-2-17.38-2.94-18.37-2.64-25.89-3.85-20.46-2.5-28.77-2.89c-17.61-.8-18.93-1.1-17.8-4,1-2.61,8.58-2.91,20.6-.83,4.39.76,13.17,2.13,19.5,3,51,7.29,64.69,9.62,75.89,13,10.28,3.06,13.44,2.39,11.58-2.47-1.49-3.88-40.08-14.28-65.8-17.73-6.27-.84-11.72-1.85-12.1-2.23-4.26-4.26,23.44-.85,52.39,6.44,25.58,6.45,27.65,6.77,25.23,3.86-1.72-2.08-13.76-5.74-36.49-11.08-14.07-3.31-19.36-6.11-7.91-4.19,22.87,3.84,32,5.89,48.19,10.81,4.73,1.44,4.09-2-.72-3.83-7-2.73-34-8.88-56.46-12.87-9.3-1.65-20.61-2.42-39.28-2.66-12.79-.16-11.41-2.92,1.61-3.22,8.81-.19,9.07-.29,3.15-1.08-13.56-1.8-75.72,2.39-106.44,7.19-31.21,4.87-37.45,6-44.59,7.77-4.35,1.1-13.41,3.34-20.14,5-21.37,5.17-49,12.69-57.34,15.63-4.46,1.56-14.58,4.89-22.49,7.41-21,6.67-50.91,17.15-57.53,20.16-24.2,11-31.72,14.82-40.76,20.72-10.7,7-11.57,8.1-8.42,10.72,1.42,1.18,3.65.39,9-3.2,8.22-5.51,20.13-11.79,34.43-18.13,5.54-2.46,12.9-5.77,16.36-7.35s6.5-2.66,6.75-2.41c1.49,1.49-3.4,4.4-18.79,11.16-17.43,7.66-42.34,21.4-42.4,23.39-.11,3.36,16.72-3.55,25.55-10.5,2-1.54,4.62-2.79,5.89-2.78s.13,1.36-2.71,3.08c-8.45,5.12-17.92,11.77-19,13.36-3.76,5.38,2,4.75,11-1.19,7.67-5.09,38.28-21,40.55-21.08.73,0,3.9-1.3,7.07-2.82a36,36,0,0,1,7.12-2.83,132.19,132.19,0,0,0,12.94-4.27c25.13-9.17,37.71-11.89,37-8-.23,1.28-7.26,3.52-25.22,8a56.46,56.46,0,0,0-10.07,3.74A160.75,160.75,0,0,1,750.54,887C724.09,895.62,693,911,693,915.42c0,1.79,10.34,4.93,11.32,3.44,1.49-2.25,20.69-13.33,23.11-13.33,1.24,0-2.77,3.22-8.9,7.14-11.85,7.61-14.18,11.57-6.82,11.57,2.38,0,4.32.65,4.32,1.44,0,2.94,6,1.3,9.79-2.66Zm4.59-10.27c0-.78,5.18-4,11.51-7.21,7.38-3.71,11.51-5.12,11.51-3.92,0,1-4.87,4.26-10.82,7.2-11.88,5.89-12.19,6-12.19,3.93ZM1137,909.46c-.39-1-.69.17-.66,2.55s.35,3.17.72,1.77a8.23,8.23,0,0,0-.06-4.32Zm-369.89-3.68c-.89-.89-6.47,1.34-6.47,2.59,0,.66,1.57.46,3.49-.44s3.26-1.88,3-2.16Zm367.59-14.46c-.84-1.57-1.54-6-1.55-9.78,0-7.07-1.85-12-3.75-10.11-.94.94,2.65,19.91,4.82,25.48.7,1.81.93,1.76,1.42-.29A8.86,8.86,0,0,0,1134.67,891.32ZM660.75,877c-1.26-7.65-4.91-29.76-8.14-49.15s-7.41-45.26-9.34-57.51-4.5-27.14-5.7-33.08-3.41-18.27-4.91-27.36c-5.22-31.75-37.67-232.47-41.15-254.6-1.93-12.26-3.88-23.26-4.34-24.45s-1.71-8.63-2.78-16.54-3.26-21.83-4.84-30.93-4.25-26.89-5.92-39.55c-6.09-46.16-5.24-43-13.3-50.38-14.38-13.25-43.54-27.51-71.58-35-5.94-1.59-14.35-3.88-18.7-5.08-39.2-10.86-103-9.71-150.31,2.69-60.26,15.82-116.54,19.22-163.28,9.87-5.3-1.06-5.26-2.59-.62,27.06,2,12.93,4.59,30,5.69,37.89s2.65,18.27,3.42,23,2.73,17.05,4.34,27.33c6.77,43.12,13.09,82.51,14.43,89.9.78,4.35,3.09,19.24,5.12,33.09s4,26.14,4.35,27.34,1.61,8.63,2.76,16.54,2.8,18.25,3.65,23c2.44,13.62,7.19,45.92,9.41,64,1.12,9.1,2.39,18,2.83,19.79s2.45,14.74,4.46,28.77c5.41,37.68,7.51,51.47,9.92,65.07,1.19,6.72,2.83,18.38,3.64,25.89s2.1,16.9,2.85,20.86,2,12.37,2.83,18.7,2.75,20.55,4.35,31.6,2.89,21.89,2.89,24.09c0,8.82,10.29,12.31,45.83,15.57,27.17,2.49,49.81.84,126.78-9.28,17.77-2.34,38.94-4.19,75.51-6.61,53-3.51,137.64,8,164.6,22.42,8.2,4.38,8.37,3.88,5.25-15Zm455.14,14.86a2.14,2.14,0,0,0-2.11-2.16,24.88,24.88,0,0,1-6.83-2c-4.5-1.91-18.28-5.91-33.18-9.62-3.78-.94-7.28-1.3-7.79-.79s.17.91,1.5.91a13.39,13.39,0,0,1,4.92,1.25c4.85,2.43,30.48,10.26,33.72,10.31a12.15,12.15,0,0,1,6.09,2.15c3.46,2.64,3.68,2.62,3.68,0Zm-434.12-5.93c12.29-7.88,27.67-15.22,49.35-23.55,8.7-3.34,17.11-6.64,18.7-7.33,2.65-1.16,25.45-8.95,46-15.74,14.7-4.84,54.21-15.7,63.29-17.4a90.51,90.51,0,0,0,11.51-2.76,96.29,96.29,0,0,1,13-2.82c5.53-.92,12.07-2.28,14.52-3,26.38-8,126.34-13.26,164.55-8.63,6.73.82,18.69,1.89,26.59,2.39s19.55,1.82,25.89,2.94c22.49,4,22.19,4.15,18.82-12.78-2.43-12.14-5.56-31.36-8.72-53.51-2.72-19-8.09-52.79-12.94-81.27-2-11.47-4.5-28.3-5.68-37.4-3.27-25.22-5.1-37.51-6.62-44.25a61.11,61.11,0,0,1-1.38-10.92,88.37,88.37,0,0,0-1.43-12.56c-2.24-12.26-6.94-42.63-8.55-55.26-.8-6.33-2.4-17.34-3.54-24.45s-3.09-19.75-4.32-28.05-2.91-18.34-3.72-22.3c-1.47-7.16-5.85-35-11.5-73.36-5-33.7-5.93-39.85-7.94-51.06-5.1-28.48-7.92-44.79-9.45-54.66-.94-5.93-3.07-17.9-4.75-26.61l-3.05-15.82-11.59-4.63c-25.79-10.29-106.07-16.21-147.35-10.86-16.54,2.15-32.52,4.41-37.4,5.31-2,.36-11.36,2-20.86,3.69-34.17,6-119.29,29.94-132.6,37.28-3.41,1.88-11,4.94-19.86,8.05-20.79,7.27-73.58,40.21-91.1,56.84-4,3.83-3.92,8.54,1,39.53,1.74,11.07,4.19,27.26,5.43,36s3.75,25.21,5.58,36.68,3.74,24.74,4.23,29.48a131.28,131.28,0,0,0,3,16.55C600,464,609.34,520,619.57,584.05s20.24,126.21,22.24,138.08,4.34,26.11,5.21,31.64c1.39,8.88,3.61,20.9,8.49,46,.77,4,2.74,16.26,4.38,27.33s3.6,23.38,4.36,27.33,2.08,13.34,2.93,20.86c2.29,20.46.86,19.41,14.59,10.61ZM1126,820.84c0-5.21-11.08-7.77-50.35-11.65-37.76-3.73-33.17-1.7,16.22,7.2a114.64,114.64,0,0,1,11.5,2.68c5.37,1.68,16.44,4,20.11,4.3A2.24,2.24,0,0,0,1126,820.84ZM97.11,403.89c-.33-2.17-.6-.39-.6,4s.27,6.13.6,3.95A31.72,31.72,0,0,0,97.11,403.89Zm47.43-28.78c-.36-1.37-.65.09-.63,3.25s.31,4.29.65,2.5A15.58,15.58,0,0,0,144.54,375.11Zm-4.32-27.33c-.36-1.37-.64.09-.63,3.26s.32,4.28.66,2.5A15.84,15.84,0,0,0,140.22,347.78Z"/></svg>