<svg width="64" height="64" viewBox="0 0 64 64" fill="none" xmlns="http://www.w3.org/2000/svg">
<path d="M8.31579 2H36.7368C40.225 2 43.0526 4.82768 43.0526 8.31579V11.4737H49.3684H55.6842C59.1723 11.4737 62 14.3014 62 17.7895V55.6842C62 59.1723 59.1723 62 55.6842 62H27.2632C23.775 62 20.9474 59.1723 20.9474 55.6842V52.5263H8.31579C4.82768 52.5263 2 49.6986 2 46.2105V8.31579C2 4.82768 4.82768 2 8.31579 2Z" fill="white"/>
<path d="M20.9474 52.5263V55.6842C20.9474 59.1723 23.775 62 27.2632 62H55.6842C59.1723 62 62 59.1723 62 55.6842V17.7895C62 14.3014 59.1723 11.4737 55.6842 11.4737H49.3684H43.0526M20.9474 52.5263H8.31579C4.82768 52.5263 2 49.6986 2 46.2105V8.31579C2 4.82768 4.82768 2 8.31579 2H36.7368C40.225 2 43.0526 4.82768 43.0526 8.31579V11.4737M20.9474 52.5263V39.8947M28.8421 23.6554H47.7895M28.8421 30.4211H38.3158M28.8421 44.6316H54.1053M28.8421 52.5263H54.1053M20.9474 20.9474V17.7895C20.9474 16.2139 21.5243 14.773 22.4785 13.6667M20.9474 20.9474V39.8947M20.9474 20.9474H9.89474M20.9474 39.8947H9.89474M9.89474 13.6667H22.4785M22.4785 13.6667C23.6367 12.3238 25.3507 11.4737 27.2632 11.4737H43.0526" stroke="black" stroke-width="3.75" stroke-linecap="round" stroke-linejoin="round"/>
</svg>
